<?xml version="1.0" encoding="UTF-8" standalone="no"?>
<!DOCTYPE svg PUBLIC "-//W3C//DTD SVG 1.1//EN"
 "http://www.w3.org/Graphics/SVG/1.1/DTD/svg11.dtd">
<!-- Generated by graphviz version 2.38.0 (20140413.2041)
 -->
<!-- Title: controllers_diagram Pages: 1 -->
<svg width="471pt" height="390pt"
 viewBox="0.00 0.00 470.51 390.00" xmlns="http://www.w3.org/2000/svg" xmlns:xlink="http://www.w3.org/1999/xlink">
<g id="graph0" class="graph" transform="scale(1 1) rotate(0) translate(156.688 267.5)">
<title>controllers_diagram</title>
<polygon fill="none" stroke="none" points="-156.688,122.5 -156.688,-267.5 313.821,-267.5 313.821,122.5 -156.688,122.5"/>
<!-- _diagram_info -->
<g id="node1" class="node"><title>_diagram_info</title>
<text text-anchor="start" x="-144.688" y="-212.1" font-family="Times,serif" font-size="13.00">Controllers diagram</text>
<text text-anchor="start" x="-144.688" y="-199.1" font-family="Times,serif" font-size="13.00">Date: Mar 21 2016 &#45; 12:18</text>
<text text-anchor="start" x="-144.688" y="-186.1" font-family="Times,serif" font-size="13.00">Migration version: 20160318144327</text>
<text text-anchor="start" x="-144.688" y="-173.1" font-family="Times,serif" font-size="13.00">Generated by RailRoady 1.4.2</text>
<text text-anchor="start" x="-144.688" y="-160.1" font-family="Times,serif" font-size="13.00">http://railroady.prestonlee.com</text>
</g>
<!-- ApplicationController -->
<g id="node2" class="node"><title>ApplicationController</title>
<path fill="none" stroke="black" d="M182.179,-171C182.179,-171 297.821,-171 297.821,-171 303.821,-171 309.821,-177 309.821,-183 309.821,-183 309.821,-251 309.821,-251 309.821,-257 303.821,-263 297.821,-263 297.821,-263 182.179,-263 182.179,-263 176.179,-263 170.179,-257 170.179,-251 170.179,-251 170.179,-183 170.179,-183 170.179,-177 176.179,-171 182.179,-171"/>
<text text-anchor="middle" x="240" y="-247.8" font-family="Times,serif" font-size="14.00">ApplicationController</text>
<polyline fill="none" stroke="black" points="170.179,-241 309.821,-241 "/>
<polyline fill="none" stroke="black" points="170.179,-217 309.821,-217 "/>
<polyline fill="none" stroke="black" points="170.179,-193 309.821,-193 "/>
<text text-anchor="start" x="178.179" y="-177.8" font-family="Times,serif" font-size="14.00">_layout</text>
</g>
<!-- PlacesController -->
<g id="node3" class="node"><title>PlacesController</title>
<path fill="none" stroke="black" d="M97.3447,84C97.3447,84 182.655,84 182.655,84 188.655,84 194.655,78 194.655,72 194.655,72 194.655,-120 194.655,-120 194.655,-126 188.655,-132 182.655,-132 182.655,-132 97.3447,-132 97.3447,-132 91.3447,-132 85.3447,-126 85.3447,-120 85.3447,-120 85.3447,72 85.3447,72 85.3447,78 91.3447,84 97.3447,84"/>
<text text-anchor="middle" x="140" y="-116.8" font-family="Times,serif" font-size="14.00">PlacesController</text>
<polyline fill="none" stroke="black" points="85.3447,-110 194.655,-110 "/>
<text text-anchor="start" x="93.3447" y="-94.8" font-family="Times,serif" font-size="14.00">create</text>
<text text-anchor="start" x="93.3447" y="-80.8" font-family="Times,serif" font-size="14.00">destroy</text>
<text text-anchor="start" x="93.3447" y="-66.8" font-family="Times,serif" font-size="14.00">edit</text>
<text text-anchor="start" x="93.3447" y="-52.8" font-family="Times,serif" font-size="14.00">index</text>
<text text-anchor="start" x="93.3447" y="-38.8" font-family="Times,serif" font-size="14.00">new</text>
<text text-anchor="start" x="93.3447" y="-24.8" font-family="Times,serif" font-size="14.00">search</text>
<text text-anchor="start" x="93.3447" y="-10.8" font-family="Times,serif" font-size="14.00">show</text>
<text text-anchor="start" x="93.3447" y="3.2" font-family="Times,serif" font-size="14.00">update</text>
<polyline fill="none" stroke="black" points="85.3447,10 194.655,10 "/>
<polyline fill="none" stroke="black" points="85.3447,34 194.655,34 "/>
<text text-anchor="start" x="93.3447" y="49.2" font-family="Times,serif" font-size="14.00">_layout</text>
<text text-anchor="start" x="93.3447" y="63.2" font-family="Times,serif" font-size="14.00">place_params</text>
<text text-anchor="start" x="93.3447" y="77.2" font-family="Times,serif" font-size="14.00">set_place</text>
</g>
<!-- ReviewsController -->
<g id="node4" class="node"><title>ReviewsController</title>
<path fill="none" stroke="black" d="M-55.8794,118C-55.8794,118 41.8794,118 41.8794,118 47.8794,118 53.8794,112 53.8794,106 53.8794,106 53.8794,-86 53.8794,-86 53.8794,-92 47.8794,-98 41.8794,-98 41.8794,-98 -55.8794,-98 -55.8794,-98 -61.8794,-98 -67.8794,-92 -67.8794,-86 -67.8794,-86 -67.8794,106 -67.8794,106 -67.8794,112 -61.8794,118 -55.8794,118"/>
<text text-anchor="middle" x="-7" y="-82.8" font-family="Times,serif" font-size="14.00">ReviewsController</text>
<polyline fill="none" stroke="black" points="-67.8794,-76 53.8794,-76 "/>
<text text-anchor="start" x="-59.8794" y="-60.8" font-family="Times,serif" font-size="14.00">create</text>
<text text-anchor="start" x="-59.8794" y="-46.8" font-family="Times,serif" font-size="14.00">destroy</text>
<text text-anchor="start" x="-59.8794" y="-32.8" font-family="Times,serif" font-size="14.00">edit</text>
<text text-anchor="start" x="-59.8794" y="-18.8" font-family="Times,serif" font-size="14.00">index</text>
<text text-anchor="start" x="-59.8794" y="-4.8" font-family="Times,serif" font-size="14.00">new</text>
<text text-anchor="start" x="-59.8794" y="9.2" font-family="Times,serif" font-size="14.00">show</text>
<text text-anchor="start" x="-59.8794" y="23.2" font-family="Times,serif" font-size="14.00">update</text>
<polyline fill="none" stroke="black" points="-67.8794,30 53.8794,30 "/>
<polyline fill="none" stroke="black" points="-67.8794,54 53.8794,54 "/>
<text text-anchor="start" x="-59.8794" y="69.2" font-family="Times,serif" font-size="14.00">_layout</text>
<text text-anchor="start" x="-59.8794" y="83.2" font-family="Times,serif" font-size="14.00">review_params</text>
<text text-anchor="start" x="-59.8794" y="97.2" font-family="Times,serif" font-size="14.00">set_place</text>
<text text-anchor="start" x="-59.8794" y="111.2" font-family="Times,serif" font-size="14.00">set_review</text>
</g>
</g>
</svg>
