<?xml version="1.0" encoding="UTF-8" standalone="no"?>
<!DOCTYPE svg PUBLIC "-//W3C//DTD SVG 1.1//EN"
 "http://www.w3.org/Graphics/SVG/1.1/DTD/svg11.dtd">
<!-- Generated by graphviz version 2.38.0 (20140413.2041)
 -->
<!-- Title: models_diagram Pages: 1 -->
<svg width="385pt" height="225pt"
 viewBox="0.00 0.00 384.81 225.00" xmlns="http://www.w3.org/2000/svg" xmlns:xlink="http://www.w3.org/1999/xlink">
<g id="graph0" class="graph" transform="scale(1 1) rotate(0) translate(4 221)">
<title>models_diagram</title>
<polygon fill="none" stroke="none" points="-4,4 -4,-221 380.809,-221 380.809,4 -4,4"/>
<!-- _diagram_info -->
<g id="node1" class="node"><title>_diagram_info</title>
<text text-anchor="start" x="8" y="-202.6" font-family="Times,serif" font-size="13.00">Models diagram</text>
<text text-anchor="start" x="8" y="-189.6" font-family="Times,serif" font-size="13.00">Date: Mar 21 2016 &#45; 12:18</text>
<text text-anchor="start" x="8" y="-176.6" font-family="Times,serif" font-size="13.00">Migration version: 20160318144327</text>
<text text-anchor="start" x="8" y="-163.6" font-family="Times,serif" font-size="13.00">Generated by RailRoady 1.4.2</text>
<text text-anchor="start" x="8" y="-150.6" font-family="Times,serif" font-size="13.00">http://railroady.prestonlee.com</text>
</g>
<!-- Picture -->
<g id="node2" class="node"><title>Picture</title>
<ellipse fill="none" stroke="black" cx="260.688" cy="-180.5" rx="35.3129" ry="18"/>
<text text-anchor="middle" x="260.688" y="-176.3" font-family="Times,serif" font-size="14.00">Picture</text>
</g>
<!-- Place -->
<g id="node3" class="node"><title>Place</title>
<ellipse fill="none" stroke="black" cx="311.688" cy="-90" rx="29.0172" ry="18"/>
<text text-anchor="middle" x="311.688" y="-85.8" font-family="Times,serif" font-size="14.00">Place</text>
</g>
<!-- Review -->
<g id="node4" class="node"><title>Review</title>
<ellipse fill="none" stroke="black" cx="339.688" cy="-18" rx="37.2421" ry="18"/>
<text text-anchor="middle" x="339.688" y="-13.8" font-family="Times,serif" font-size="14.00">Review</text>
</g>
<!-- Place&#45;&gt;Review -->
<g id="edge1" class="edge"><title>Place&#45;&gt;Review</title>
<path fill="none" stroke="#d0f4ae" d="M321.377,-64.7779C323.87,-58.544 326.566,-51.8046 329.102,-45.4634"/>
<ellipse fill="none" stroke="#d0f4ae" cx="319.809" cy="-68.6971" rx="4.00001" ry="4.00001"/>
<polygon fill="#d0f4ae" stroke="#d0f4ae" points="329.191,-45.241 337.083,-37.6275 331.048,-40.5986 332.905,-35.9562 332.905,-35.9562 332.905,-35.9562 331.048,-40.5986 328.727,-34.2849 329.191,-45.241 329.191,-45.241"/>
</g>
<!-- User -->
<g id="node5" class="node"><title>User</title>
<ellipse fill="none" stroke="black" cx="340.688" cy="-180.5" rx="27" ry="18"/>
<text text-anchor="middle" x="340.688" y="-176.3" font-family="Times,serif" font-size="14.00">User</text>
</g>
<!-- User&#45;&gt;Place -->
<g id="edge2" class="edge"><title>User&#45;&gt;Place</title>
<path fill="none" stroke="#9b00ac" d="M332.652,-154.976C328.853,-143.383 324.309,-129.518 320.425,-117.664"/>
<ellipse fill="none" stroke="#9b00ac" cx="333.987" cy="-159.053" rx="4.00001" ry="4.00001"/>
<polygon fill="#9b00ac" stroke="#9b00ac" points="320.331,-117.375 321.493,-106.471 318.774,-112.624 317.217,-107.872 317.217,-107.872 317.217,-107.872 318.774,-112.624 312.94,-109.274 320.331,-117.375 320.331,-117.375"/>
</g>
<!-- User&#45;&gt;Review -->
<g id="edge3" class="edge"><title>User&#45;&gt;Review</title>
<path fill="none" stroke="#12a2f2" d="M345.319,-154.275C348.718,-132.482 352.32,-100.15 349.688,-72 348.891,-63.4781 347.388,-54.2849 345.785,-45.9862"/>
<ellipse fill="none" stroke="#12a2f2" cx="344.64" cy="-158.415" rx="4.00001" ry="4.00001"/>
<polygon fill="#12a2f2" stroke="#12a2f2" points="345.761,-45.866 348.155,-35.1647 344.754,-40.9684 343.747,-36.0708 343.747,-36.0708 343.747,-36.0708 344.754,-40.9684 339.339,-36.977 345.761,-45.866 345.761,-45.866"/>
</g>
</g>
</svg>
