<?xml version="1.0" encoding="UTF-8" standalone="no"?>
<!DOCTYPE svg PUBLIC "-//W3C//DTD SVG 1.1//EN"
 "http://www.w3.org/Graphics/SVG/1.1/DTD/svg11.dtd">
<!-- Generated by graphviz version 2.38.0 (20140413.2041)
 -->
<!-- Title: models_diagram Pages: 1 -->
<svg width="635pt" height="635pt"
 viewBox="0.00 0.00 634.97 635.00" xmlns="http://www.w3.org/2000/svg" xmlns:xlink="http://www.w3.org/1999/xlink">
<g id="graph0" class="graph" transform="scale(1 1) rotate(0) translate(4 631)">
<title>models_diagram</title>
<polygon fill="none" stroke="none" points="-4,4 -4,-631 630.966,-631 630.966,4 -4,4"/>
<!-- _diagram_info -->
<g id="node1" class="node"><title>_diagram_info</title>
<text text-anchor="start" x="8" y="-542.6" font-family="Times,serif" font-size="13.00">Models diagram</text>
<text text-anchor="start" x="8" y="-529.6" font-family="Times,serif" font-size="13.00">Date: Mar 21 2016 &#45; 12:18</text>
<text text-anchor="start" x="8" y="-516.6" font-family="Times,serif" font-size="13.00">Migration version: 20160318144327</text>
<text text-anchor="start" x="8" y="-503.6" font-family="Times,serif" font-size="13.00">Generated by RailRoady 1.4.2</text>
<text text-anchor="start" x="8" y="-490.6" font-family="Times,serif" font-size="13.00">http://railroady.prestonlee.com</text>
</g>
<!-- Picture -->
<g id="node2" class="node"><title>Picture</title>
<path fill="none" stroke="black" d="M237.251,-456.5C237.251,-456.5 392.124,-456.5 392.124,-456.5 398.124,-456.5 404.124,-462.5 404.124,-468.5 404.124,-468.5 404.124,-572.5 404.124,-572.5 404.124,-578.5 398.124,-584.5 392.124,-584.5 392.124,-584.5 237.251,-584.5 237.251,-584.5 231.251,-584.5 225.251,-578.5 225.251,-572.5 225.251,-572.5 225.251,-468.5 225.251,-468.5 225.251,-462.5 231.251,-456.5 237.251,-456.5"/>
<text text-anchor="middle" x="314.688" y="-569.3" font-family="Times,serif" font-size="14.00">Picture</text>
<polyline fill="none" stroke="black" points="225.251,-562.5 404.124,-562.5 "/>
<text text-anchor="start" x="233.251" y="-547.3" font-family="Times,serif" font-size="14.00">id :INTEGER</text>
<text text-anchor="start" x="233.251" y="-533.3" font-family="Times,serif" font-size="14.00">created_at :datetime</text>
<text text-anchor="start" x="233.251" y="-519.3" font-family="Times,serif" font-size="14.00">updated_at :datetime</text>
<text text-anchor="start" x="233.251" y="-505.3" font-family="Times,serif" font-size="14.00">image_file_name :varchar</text>
<text text-anchor="start" x="233.251" y="-491.3" font-family="Times,serif" font-size="14.00">image_content_type :varchar</text>
<text text-anchor="start" x="233.251" y="-477.3" font-family="Times,serif" font-size="14.00">image_file_size :integer</text>
<text text-anchor="start" x="233.251" y="-463.3" font-family="Times,serif" font-size="14.00">image_updated_at :datetime</text>
</g>
<!-- Place -->
<g id="node3" class="node"><title>Place</title>
<path fill="none" stroke="black" d="M388.251,-165.5C388.251,-165.5 543.124,-165.5 543.124,-165.5 549.124,-165.5 555.124,-171.5 555.124,-177.5 555.124,-177.5 555.124,-365.5 555.124,-365.5 555.124,-371.5 549.124,-377.5 543.124,-377.5 543.124,-377.5 388.251,-377.5 388.251,-377.5 382.251,-377.5 376.251,-371.5 376.251,-365.5 376.251,-365.5 376.251,-177.5 376.251,-177.5 376.251,-171.5 382.251,-165.5 388.251,-165.5"/>
<text text-anchor="middle" x="465.688" y="-362.3" font-family="Times,serif" font-size="14.00">Place</text>
<polyline fill="none" stroke="black" points="376.251,-355.5 555.124,-355.5 "/>
<text text-anchor="start" x="384.251" y="-340.3" font-family="Times,serif" font-size="14.00">id :INTEGER</text>
<text text-anchor="start" x="384.251" y="-326.3" font-family="Times,serif" font-size="14.00">title :varchar</text>
<text text-anchor="start" x="384.251" y="-312.3" font-family="Times,serif" font-size="14.00">description :text</text>
<text text-anchor="start" x="384.251" y="-298.3" font-family="Times,serif" font-size="14.00">rating :varchar</text>
<text text-anchor="start" x="384.251" y="-284.3" font-family="Times,serif" font-size="14.00">created_at :datetime</text>
<text text-anchor="start" x="384.251" y="-270.3" font-family="Times,serif" font-size="14.00">updated_at :datetime</text>
<text text-anchor="start" x="384.251" y="-256.3" font-family="Times,serif" font-size="14.00">user_id :integer</text>
<text text-anchor="start" x="384.251" y="-242.3" font-family="Times,serif" font-size="14.00">image_file_name :varchar</text>
<text text-anchor="start" x="384.251" y="-228.3" font-family="Times,serif" font-size="14.00">image_content_type :varchar</text>
<text text-anchor="start" x="384.251" y="-214.3" font-family="Times,serif" font-size="14.00">image_file_size :integer</text>
<text text-anchor="start" x="384.251" y="-200.3" font-family="Times,serif" font-size="14.00">image_updated_at :datetime</text>
<text text-anchor="start" x="384.251" y="-186.3" font-family="Times,serif" font-size="14.00">latitude :decimal</text>
<text text-anchor="start" x="384.251" y="-172.3" font-family="Times,serif" font-size="14.00">longitude :decimal</text>
</g>
<!-- Review -->
<g id="node4" class="node"><title>Review</title>
<path fill="none" stroke="black" d="M469.182,-0.5C469.182,-0.5 578.193,-0.5 578.193,-0.5 584.193,-0.5 590.193,-6.5 590.193,-12.5 590.193,-12.5 590.193,-116.5 590.193,-116.5 590.193,-122.5 584.193,-128.5 578.193,-128.5 578.193,-128.5 469.182,-128.5 469.182,-128.5 463.182,-128.5 457.182,-122.5 457.182,-116.5 457.182,-116.5 457.182,-12.5 457.182,-12.5 457.182,-6.5 463.182,-0.5 469.182,-0.5"/>
<text text-anchor="middle" x="523.688" y="-113.3" font-family="Times,serif" font-size="14.00">Review</text>
<polyline fill="none" stroke="black" points="457.182,-106.5 590.193,-106.5 "/>
<text text-anchor="start" x="465.182" y="-91.3" font-family="Times,serif" font-size="14.00">id :INTEGER</text>
<text text-anchor="start" x="465.182" y="-77.3" font-family="Times,serif" font-size="14.00">rating :integer</text>
<text text-anchor="start" x="465.182" y="-63.3" font-family="Times,serif" font-size="14.00">comment :text</text>
<text text-anchor="start" x="465.182" y="-49.3" font-family="Times,serif" font-size="14.00">created_at :datetime</text>
<text text-anchor="start" x="465.182" y="-35.3" font-family="Times,serif" font-size="14.00">updated_at :datetime</text>
<text text-anchor="start" x="465.182" y="-21.3" font-family="Times,serif" font-size="14.00">user_id :integer</text>
<text text-anchor="start" x="465.182" y="-7.3" font-family="Times,serif" font-size="14.00">place_id :integer</text>
</g>
<!-- Place&#45;&gt;Review -->
<g id="edge1" class="edge"><title>Place&#45;&gt;Review</title>
<path fill="none" stroke="#b3c9a3" d="M497.684,-157.411C499.505,-150.975 501.31,-144.595 503.07,-138.374"/>
<ellipse fill="none" stroke="#b3c9a3" cx="496.541" cy="-161.449" rx="4.00001" ry="4.00001"/>
<polygon fill="#b3c9a3" stroke="#b3c9a3" points="503.072,-138.367 510.124,-129.97 504.433,-133.556 505.794,-128.745 505.794,-128.745 505.794,-128.745 504.433,-133.556 501.464,-127.519 503.072,-138.367 503.072,-138.367"/>
</g>
<!-- User -->
<g id="node5" class="node"><title>User</title>
<path fill="none" stroke="black" d="M434.41,-414.5C434.41,-414.5 614.966,-414.5 614.966,-414.5 620.966,-414.5 626.966,-420.5 626.966,-426.5 626.966,-426.5 626.966,-614.5 626.966,-614.5 626.966,-620.5 620.966,-626.5 614.966,-626.5 614.966,-626.5 434.41,-626.5 434.41,-626.5 428.41,-626.5 422.41,-620.5 422.41,-614.5 422.41,-614.5 422.41,-426.5 422.41,-426.5 422.41,-420.5 428.41,-414.5 434.41,-414.5"/>
<text text-anchor="middle" x="524.688" y="-611.3" font-family="Times,serif" font-size="14.00">User</text>
<polyline fill="none" stroke="black" points="422.41,-604.5 626.966,-604.5 "/>
<text text-anchor="start" x="430.41" y="-589.3" font-family="Times,serif" font-size="14.00">id :INTEGER</text>
<text text-anchor="start" x="430.41" y="-575.3" font-family="Times,serif" font-size="14.00">email :varchar</text>
<text text-anchor="start" x="430.41" y="-561.3" font-family="Times,serif" font-size="14.00">encrypted_password :varchar</text>
<text text-anchor="start" x="430.41" y="-547.3" font-family="Times,serif" font-size="14.00">reset_password_token :varchar</text>
<text text-anchor="start" x="430.41" y="-533.3" font-family="Times,serif" font-size="14.00">reset_password_sent_at :datetime</text>
<text text-anchor="start" x="430.41" y="-519.3" font-family="Times,serif" font-size="14.00">remember_created_at :datetime</text>
<text text-anchor="start" x="430.41" y="-505.3" font-family="Times,serif" font-size="14.00">sign_in_count :integer</text>
<text text-anchor="start" x="430.41" y="-491.3" font-family="Times,serif" font-size="14.00">current_sign_in_at :datetime</text>
<text text-anchor="start" x="430.41" y="-477.3" font-family="Times,serif" font-size="14.00">last_sign_in_at :datetime</text>
<text text-anchor="start" x="430.41" y="-463.3" font-family="Times,serif" font-size="14.00">current_sign_in_ip :varchar</text>
<text text-anchor="start" x="430.41" y="-449.3" font-family="Times,serif" font-size="14.00">last_sign_in_ip :varchar</text>
<text text-anchor="start" x="430.41" y="-435.3" font-family="Times,serif" font-size="14.00">created_at :datetime</text>
<text text-anchor="start" x="430.41" y="-421.3" font-family="Times,serif" font-size="14.00">updated_at :datetime</text>
</g>
<!-- User&#45;&gt;Place -->
<g id="edge2" class="edge"><title>User&#45;&gt;Place</title>
<path fill="none" stroke="#06345e" d="M497.66,-406.348C496.154,-400.044 494.639,-393.705 493.132,-387.395"/>
<ellipse fill="none" stroke="#06345e" cx="498.652" cy="-410.501" rx="4.00001" ry="4.00001"/>
<polygon fill="#06345e" stroke="#06345e" points="493.095,-387.24 495.149,-376.468 491.934,-382.377 490.772,-377.514 490.772,-377.514 490.772,-377.514 491.934,-382.377 486.395,-378.559 493.095,-387.24 493.095,-387.24"/>
</g>
<!-- User&#45;&gt;Review -->
<g id="edge3" class="edge"><title>User&#45;&gt;Review</title>
<path fill="none" stroke="#9c17d1" d="M558.75,-406.307C560.736,-396.796 562.433,-387.272 563.688,-378 576.379,-284.188 581.67,-257.943 563.688,-165 561.974,-156.14 559.475,-147.069 556.55,-138.183"/>
<ellipse fill="none" stroke="#9c17d1" cx="557.865" cy="-410.38" rx="4.00001" ry="4.00001"/>
<polygon fill="#9c17d1" stroke="#9c17d1" points="556.513,-138.078 557.475,-127.154 554.869,-133.355 553.225,-128.633 553.225,-128.633 553.225,-128.633 554.869,-133.355 548.975,-130.113 556.513,-138.078 556.513,-138.078"/>
</g>
</g>
</svg>
